<svg id="Layer_1" data-name="Layer 1" xmlns="http://www.w3.org/2000/svg" viewBox="0 0 65.32 64.95"><defs><style>.cls-1{fill:#ff6363;}.cls-1,.cls-2{stroke:#000;stroke-miterlimit:10;stroke-width:2px;}.cls-2{fill:none;stroke-linecap:round;}</style></defs><title>wavehand</title><path class="cls-1" d="M135.37,123s-18.13,16.6-33.22-11.81S88.24,81.73,91,78.63s9.59,3.77,19.18,22.74c0,0-17.33-29.58-11.72-32.56s12,9.46,18.29,25.32c0,0-12.36-26.33-8.55-28.69s11.25,2.63,18.69,25.86c0,0,3.41,10.16,4.88,1.87,1.23-6.91,2.74-9.31,3.73-10.8,1.29-1.94,11.79-6.2,7.51,13.09-.42,1.88.26,7.55.28,9.48C143.3,108.88,140.8,118.6,135.37,123Z" transform="translate(-79.67 -63.91)"/><path class="cls-2" d="M82.32,91.12s-4.79-11.16,2-17.54" transform="translate(-79.67 -63.91)"/><path class="cls-2" d="M124.81,118.62S115,109.71,126.32,99" transform="translate(-79.67 -63.91)"/><path class="cls-2" d="M106.57,106.13s8.32-12.61,16-13.85" transform="translate(-79.67 -63.91)"/></svg>